<?xml version="1.0" encoding="UTF-8"?>
<svg version="1.1" xmlns="http://www.w3.org/2000/svg" width="512" height="512">
<path d="M0 0 C0.92320038 0.00215515 1.84640076 0.0043103 2.7975769 0.00653076 C16.84510478 0.05906873 30.56720523 0.50878372 44.375 3.3125 C45.83800537 3.60253906 45.83800537 3.60253906 47.33056641 3.8984375 C89.5561911 12.53140952 129.50688243 31.53522623 161.04296875 61.1328125 C163.06200592 63.01995277 165.12693267 64.79547502 167.25 66.5625 C206.07006128 100.55970234 230.81301775 152.8848317 238.375 203.3125 C238.55160156 204.45960449 238.72820312 205.60670898 238.91015625 206.78857422 C240.44871324 217.72469227 240.77475956 228.52761304 240.75 239.5625 C240.74918427 240.93796494 240.74918427 240.93796494 240.74835205 242.34121704 C240.58939995 300.93414211 219.22955602 356.48371414 180.375 400.3125 C179.89272949 400.85793457 179.41045898 401.40336914 178.91357422 401.96533203 C139.09470469 446.72379079 81.23104934 475.78847836 21.375 480.3125 C14.48262242 480.65503456 7.58667426 480.65333639 0.6875 480.625 C-0.69822205 480.62226578 -0.69822205 480.62226578 -2.11193848 480.61947632 C-15.82977635 480.57394399 -29.14839132 480.06690328 -42.625 477.3125 C-43.47690918 477.15152832 -44.32881836 476.99055664 -45.20654297 476.82470703 C-88.99093781 468.4722139 -129.01395816 448.64974443 -161.625 418.3125 C-162.9959163 417.12028787 -164.37076624 415.93258001 -165.75 414.75 C-173.54691563 407.92183942 -180.21925423 400.4483848 -186.625 392.3125 C-187.12725098 391.68134277 -187.62950195 391.05018555 -188.14697266 390.39990234 C-195.78330791 380.77807396 -202.6872176 371.06801154 -208.625 360.3125 C-209.06054199 359.53422852 -209.49608398 358.75595703 -209.94482422 357.95410156 C-240.5055373 302.99402322 -248.85797822 237.03350672 -232.08203125 176.24609375 C-218.21567823 128.49702365 -191.18372946 84.09148623 -151.625 53.3125 C-150.99964355 52.8160498 -150.37428711 52.31959961 -149.72998047 51.80810547 C-140.09964627 44.16312292 -130.3836999 37.2669056 -119.625 31.3125 C-118.86268066 30.88227539 -118.10036133 30.45205078 -117.31494141 30.00878906 C-95.52969478 17.78197668 -72.08462351 9.1700919 -47.625 4.125 C-46.87895508 3.96990967 -46.13291016 3.81481934 -45.36425781 3.6550293 C-30.2747702 0.71811693 -15.33595828 -0.06464961 0 0 Z " fill="#FF5A54" transform="translate(255.625,15.6875)"/>
<path d="M0 0 C0.91954358 -0.00794881 1.83908715 -0.01589762 2.78649569 -0.02408731 C5.86931904 -0.04334469 8.95030908 -0.0196949 12.03308105 0.0038147 C14.24243353 -0.00104095 16.45178162 -0.00847942 18.66111755 -0.01831055 C24.66326607 -0.03713893 30.66476291 -0.01826963 36.66686058 0.00835371 C42.94392382 0.03096749 49.22095461 0.02276888 55.49804688 0.01885986 C66.03993902 0.01709342 76.58160273 0.03912467 87.12341309 0.07608032 C97.96821864 0.11408814 108.81272537 0.12825532 119.65759277 0.11709595 C132.72839875 0.10368585 145.79906053 0.11027511 158.86985779 0.1353035 C163.86179558 0.14459963 168.8536522 0.1463414 173.84559631 0.14213181 C179.72259031 0.1383681 185.59920022 0.15455729 191.47610664 0.18625259 C193.6348213 0.19474714 195.79357491 0.19643343 197.95229912 0.19087219 C200.89562469 0.18443935 203.83779872 0.20256172 206.78100586 0.22705078 C207.63849442 0.21949213 208.49598298 0.21193349 209.37945604 0.20414579 C213.41507786 0.26368402 215.40875552 0.44281576 218.8973465 2.65603065 C221.60746393 5.5011083 222.01744514 7.02741254 222.08337402 10.84341431 C222.09943695 11.68801712 222.11549988 12.53261993 222.13204956 13.40281677 C222.17651838 17.26728512 222.21756513 21.13158195 222.24060059 24.99624634 C222.25715945 27.03412293 222.28444851 29.07194146 222.32263184 31.10952759 C222.37741533 34.04806641 222.39927669 36.98524405 222.41394043 39.92422485 C222.4366098 40.83271683 222.45927917 41.7412088 222.4826355 42.67723083 C222.47978546 43.53129013 222.47693542 44.38534943 222.47399902 45.26528931 C222.48208588 46.01204422 222.49017273 46.75879913 222.49850464 47.52818298 C221.53032677 51.06371118 219.76255495 52.53900184 216.89050293 54.7484436 C214.15292244 55.24256176 212.0320985 55.43191798 209.30212402 55.39199829 C208.55518784 55.4008757 207.80825165 55.40975311 207.03868103 55.41889954 C204.57997768 55.44252134 202.12271109 55.43140552 199.66394043 55.4203186 C197.95189873 55.43090019 196.23986999 55.44381244 194.52786255 55.45895386 C190.02772491 55.49314597 185.52802084 55.49853672 181.027771 55.49703979 C174.6790036 55.50026629 168.33035711 55.54294899 161.98171997 55.58078003 C158.60175905 55.60079465 155.2220282 55.61012845 151.8420105 55.6109314 C150.30137119 55.61475171 148.76073195 55.61859564 147.22009277 55.62246704 C146.51872696 55.62036728 145.81736115 55.61826752 145.09474182 55.61610413 C142.07512304 55.62810705 139.78122079 55.78487098 136.89050293 56.7484436 C136.88903637 57.87765574 136.88756981 59.00686789 136.88605881 60.17029858 C136.84948777 87.62783924 136.79006967 115.0852577 136.70660019 142.54269695 C136.66676588 155.82083531 136.63439569 169.09891402 136.61950684 182.37710571 C136.6065131 193.94838906 136.57960674 205.51954141 136.53588986 217.09075099 C136.51322387 223.21943617 136.49759533 229.34795948 136.49861908 235.47669029 C136.49936265 241.2428065 136.48153375 247.00856415 136.4493351 252.77458763 C136.44080209 254.89298366 136.43910909 257.01141975 136.44470024 259.12982559 C136.45131042 262.01867936 136.43349091 264.90638239 136.40948486 267.79512024 C136.41724528 268.63656466 136.4250057 269.47800907 136.43300128 270.34495181 C136.37402515 274.34433554 136.18333113 276.28833372 133.98306656 279.74552631 C130.85707698 282.73759714 129.10172078 282.88239561 124.87756348 282.9413147 C123.31034798 282.96540909 123.31034798 282.96540909 121.71147156 282.98999023 C116.93106687 283.03438166 112.15080177 283.0755024 107.37023926 283.09854126 C104.84735901 283.11510817 102.32452584 283.14240744 99.80187988 283.18057251 C96.16841223 283.2352755 92.5360454 283.2572061 88.90222168 283.2718811 C87.77499191 283.29455048 86.64776215 283.31721985 85.4863739 283.34057617 C84.43210709 283.33772614 83.37784027 283.3348761 82.29162598 283.3319397 C80.90502022 283.34406998 80.90502022 283.34406998 79.49040222 283.35644531 C75.66213712 282.46118305 74.31103085 280.82323974 71.89050293 277.7484436 C71.17294754 274.78008702 71.22938664 271.89539107 71.27818298 268.85327148 C71.26988286 267.50859139 71.26988286 267.50859139 71.26141506 266.13674605 C71.24883285 263.13233326 71.2718283 260.12924612 71.29455566 257.12490845 C71.29265202 254.9714274 71.2884972 252.81794734 71.28225708 250.66447449 C71.27346105 246.02737564 71.28023208 241.39065078 71.29891777 236.753582 C71.32796358 229.4263823 71.3202301 222.09950621 71.30702209 214.77227783 C71.28634699 200.54600367 71.30197068 186.31988561 71.32249451 172.0936203 C71.34762962 153.97757725 71.36055507 135.86162041 71.33253819 117.74557459 C71.32255944 110.45633282 71.33277209 103.16747639 71.358446 95.87827659 C71.37058166 91.35155038 71.3664314 86.82494568 71.35786819 82.29821587 C71.35733125 80.1934619 71.3637193 78.08869351 71.37740898 75.98398399 C71.39514547 73.11885118 71.38858295 70.25478338 71.37583923 67.38964844 C71.38701025 66.54967988 71.39818127 65.70971133 71.4096908 64.84428918 C71.39685736 60.37903442 71.39685736 60.37903442 69.07125187 56.73118591 C65.89085788 55.29795916 62.85244366 55.34997142 59.43151855 55.39541626 C58.68633469 55.39325607 57.94115082 55.39109589 57.17338562 55.38887024 C55.55884247 55.38578729 53.9442758 55.3893773 52.32975769 55.39888382 C49.7741046 55.4126279 47.21922747 55.40618233 44.66357422 55.39404297 C37.3991586 55.36308369 30.13492404 55.36798052 22.8704834 55.38809204 C18.42419128 55.39900217 13.97848329 55.38583729 9.53227234 55.35819626 C7.83860132 55.35275225 6.14487199 55.35682848 4.45124817 55.37059402 C2.08334515 55.38961924 -0.28264321 55.37826036 -2.6505127 55.36026001 C-3.69952507 55.38026817 -3.69952507 55.38026817 -4.76972961 55.40068054 C-8.38171049 55.33959667 -9.8612674 54.97924229 -12.54234314 52.48643494 C-14.09688457 49.77047905 -14.61701082 48.40255085 -14.64294434 45.32876587 C-14.65878067 44.48761734 -14.674617 43.64646881 -14.69093323 42.77983093 C-14.68597336 41.88388718 -14.68101349 40.98794342 -14.67590332 40.06484985 C-14.6821019 39.1317247 -14.68830048 38.19859955 -14.69468689 37.23719788 C-14.70177631 35.26789389 -14.6986264 33.29852986 -14.68591309 31.32925415 C-14.67205716 28.32397566 -14.70611862 25.3218182 -14.7442627 22.31680298 C-14.74521406 20.39948451 -14.74335414 18.48216216 -14.73840332 16.56484985 C-14.75166153 15.67093033 -14.76491974 14.7770108 -14.77857971 13.85600281 C-14.7660466 13.01170212 -14.75351349 12.16740143 -14.74060059 11.29751587 C-14.73963882 10.56203018 -14.73867706 9.82654449 -14.73768616 9.06877136 C-12.52606968 0.89977384 -7.4864602 -0.12876508 0 0 Z " fill="#FFFDFD" transform="translate(152.1094970703125,114.25155639648438)"/>
</svg>
